<?xml version="1.0" standalone="no"?>
<!DOCTYPE svg PUBLIC "-//W3C//DTD SVG 20010904//EN"
 "http://www.w3.org/TR/2001/REC-SVG-20010904/DTD/svg10.dtd">
<svg version="1.0" xmlns="http://www.w3.org/2000/svg"
 width="225.000000pt" height="225.000000pt" viewBox="0 0 225.000000 225.000000"
 preserveAspectRatio="xMidYMid meet">
<metadata>
Created by potrace 1.11, written by Peter Selinger 2001-2013
</metadata>
<g transform="translate(0.000000,225.000000) scale(0.100000,-0.100000)"
fill="#000000" stroke="none">
<path d="M7 2243 c-4 -3 -7 -510 -7 -1125 l0 -1118 1125 0 1125 0 0 1125 0
1125 -1118 0 c-615 0 -1122 -3 -1125 -7z m566 -30 c8 -16 20 -50 26 -78 7 -27
26 -83 43 -123 29 -70 32 -73 57 -67 14 4 56 9 92 12 63 4 69 3 100 -25 28
-25 34 -37 33 -70 -1 -22 -9 -54 -18 -72 -9 -18 -16 -35 -16 -36 0 -2 71 -5
158 -6 l157 -3 0 -95 0 -95 -50 0 -50 0 -5 50 c-7 67 -24 75 -167 75 -96 0
-117 -3 -148 -21 l-35 -21 2 -192 3 -191 90 -3 c50 -1 108 1 130 6 37 7 40 10
43 45 3 36 4 37 43 37 l39 0 0 -115 0 -115 -39 0 c-39 0 -40 1 -43 38 l-3 37
-60 8 c-33 4 -91 6 -130 5 l-70 -3 -3 -215 c-2 -175 0 -219 12 -235 13 -18 28
-20 163 -23 185 -3 197 1 201 76 l3 52 55 0 54 0 0 -100 0 -100 -415 0 -415 0
0 29 c0 27 4 30 43 36 77 12 72 -20 75 430 2 245 -1 405 -7 405 -5 0 -63 -18
-129 -40 -66 -22 -127 -37 -136 -34 -44 17 9 108 68 120 33 6 33 7 20 32 -18
37 -72 90 -181 179 -51 41 -93 80 -93 86 0 36 326 285 435 333 43 19 53 17 68
-13z m976 -468 l61 -18 -6 -66 -5 -66 48 -23 c26 -12 70 -39 97 -60 27 -20 55
-41 61 -46 9 -7 26 1 53 22 22 18 45 32 50 32 24 0 140 -161 155 -215 5 -15
-4 -28 -38 -52 l-44 -33 -147 0 -147 0 -33 34 c-80 83 -192 135 -288 136 l-48
0 4 173 c3 94 9 180 13 191 7 17 16 18 80 13 40 -3 100 -13 134 -22z m599
-732 l3 -113 -56 0 -55 0 0 58 c0 94 -5 97 -157 97 l-128 0 -3 -410 c-3 -405
1 -517 18 -545 5 -8 32 -17 62 -20 51 -5 53 -6 56 -37 l3 -33 -244 0 -245 0
-4 30 c-6 38 -3 40 47 40 23 0 50 6 61 14 18 14 19 32 22 490 l3 476 -109 0
c-166 0 -182 -10 -182 -112 l0 -48 -50 0 -50 0 0 115 0 115 503 -2 502 -3 3
-112z m-1548 -594 c0 -82 2 -91 20 -96 11 -3 20 -12 20 -20 0 -8 -9 -17 -20
-20 -24 -6 -28 -51 -5 -59 32 -13 12 -24 -42 -24 l-57 0 22 20 c12 12 22 29
22 40 0 17 -9 19 -72 22 -61 3 -73 6 -73 20 0 27 144 208 166 208 17 0 19 -9
19 -91z m260 63 c40 -40 54 -99 40 -167 -19 -93 -69 -130 -160 -118 -36 5 -40
8 -40 34 0 34 17 39 22 7 2 -18 10 -24 39 -26 30 -2 41 2 58 23 20 27 38 91
28 101 -3 4 -16 -1 -29 -10 -35 -25 -76 -20 -109 13 -42 42 -40 92 5 137 46
46 104 48 146 6z m250 15 c42 -21 40 -93 -4 -117 l-25 -13 32 -21 c39 -26 50
-86 21 -117 -23 -26 -84 -41 -133 -33 -37 6 -41 9 -41 35 0 36 13 37 28 4 14
-29 61 -35 86 -9 46 46 19 116 -47 122 -44 4 -50 22 -7 22 71 0 98 96 33 121
-28 11 -63 -4 -63 -26 0 -8 -7 -15 -15 -15 -22 0 -19 47 3 53 36 10 108 6 132
-6z m242 -134 c3 -135 4 -138 26 -141 12 -2 22 -8 22 -13 0 -5 -36 -9 -81 -9
-51 0 -78 4 -74 10 3 6 15 10 26 10 18 0 19 8 19 126 l0 126 -25 -6 c-14 -4
-25 -2 -25 3 0 5 17 13 38 19 75 20 71 27 74 -125z"/>
<path d="M508 2167 c-94 -91 -271 -220 -362 -264 -20 -9 -35 -20 -34 -23 6
-13 136 -118 165 -134 17 -8 43 -36 57 -61 15 -25 32 -45 37 -45 6 0 52 19
103 41 86 39 93 44 94 71 1 56 56 110 112 112 17 1 30 6 30 13 0 21 -12 43
-20 38 -24 -15 -86 112 -122 249 l-13 49 -47 -46z"/>
<path d="M810 1930 c0 -6 11 -15 24 -20 73 -28 54 -121 -40 -191 -77 -59 -230
-118 -334 -130 -47 -5 -99 -12 -116 -14 -50 -8 -111 -75 -69 -75 33 0 390 125
467 163 71 36 89 50 121 98 50 72 54 121 13 155 -28 24 -66 32 -66 14z"/>
<path d="M745 1893 c7 -32 44 -75 56 -67 18 10 -30 94 -54 94 -5 0 -6 -12 -2
-27z"/>
<path d="M823 1878 c17 -48 17 -58 -2 -77 -12 -12 -30 -21 -41 -21 -11 0 -20
-6 -20 -14 0 -8 -3 -22 -7 -32 -6 -16 -4 -15 26 2 58 34 91 104 67 143 -10 15
-29 14 -23 -1z"/>
<path d="M642 1823 c-19 -7 -43 -59 -36 -78 15 -37 69 -45 102 -15 51 48 1
120 -66 93z"/>
<path d="M483 1661 c-51 -20 -96 -40 -99 -44 -16 -16 91 -6 148 14 64 21 122
48 116 53 -1 2 -19 6 -38 9 -26 4 -58 -4 -127 -32z"/>
<path d="M492 395 c-29 -35 -52 -67 -52 -70 0 -3 26 -5 58 -3 l57 3 3 68 c2
37 -1 67 -6 67 -5 0 -32 -29 -60 -65z"/>
<path d="M762 484 c-18 -12 -22 -25 -22 -69 0 -47 3 -57 25 -71 33 -21 70 -7
79 31 9 35 -11 102 -34 115 -24 13 -21 13 -48 -6z"/>
</g>
</svg>
